<svg xmlns="http://www.w3.org/2000/svg" id="mainsvg" width="1317.08671875" height="743.7" viewBox="-10 -10 1197.3515625 677"><defs><marker id="arrow" viewBox="0 0 10 10" refX="10" refY="5" markerWidth="5" markerHeight="5" orient="auto-start-reverse" fill="black"><path stroke="black" d="M 0 0 L 10 5 L 0 10 z"/></marker><marker id="Many" viewBox="0 0 16 16" refX="15" refY="8" markerWidth="15" markerHeight="15" orient="auto-start-reverse"><path stroke="black" d="M0 8H15M15 15L2 8L15 1" fill="none"/></marker><marker id="ZeroOrOne" viewBox="0 0 16 10" refX="15" refY="5" markerWidth="21" markerHeight="21" orient="auto-start-reverse"><path d="M9 5H16" stroke="black" fill="none"/><circle cx="5" cy="5" r="4.5" stroke="black" fill="#fff"/><path d="M12 0L12 10" stroke="black" fill="none"/></marker><marker id="OneOnlyOne" viewBox="0 0 10 14" refX="10" refY="7" markerWidth="13" markerHeight="13" orient="auto-start-reverse"><path d="M0 7H4M4 7H7M4 7V0M4 7V14M7 7H10M7 7V0M7 7V14" stroke="black" fill="none"/></marker><marker id="OneOrMany" viewBox="0 0 16 16" refX="15" refY="8" markerWidth="15" markerHeight="15" orient="auto-start-reverse"><path stroke="black" d="M2 1V15M2 8L15 15M2 8L15 1M2 8H0M2 8H15" fill="none"/></marker><marker id="ZeroOrMany" viewBox="0 0 25 16" refX="23" refY="8" markerWidth="25" markerHeight="25" orient="auto-start-reverse"><path d="M13 8H27M27 15L14 8L27 1" stroke="black" fill="none"/><path d="M13.5 7.5C13.5 10.7795 10.6254 13.5 7 13.5C3.37461 13.5 0.5 10.7795 0.5 7.5C0.5 4.22054 3.37461 1.5 7 1.5C10.6254 1.5 13.5 4.22054 13.5 7.5Z" stroke="black" fill="#fff"/></marker><marker id="aggregation" viewBox="0 0 10 6" refX="9.3" refY="2.8" markerWidth="23" markerHeight="15" orient="auto-start-reverse"><path stroke="black" fill="#fff" stroke-width="0.7" d="M1.01614 2.82609L5 0.574341L8.98386 2.82609L5 5.07783L1.01614 2.82609Z"/></marker><marker id="composition" viewBox="0 0 10 6" refX="9.7" refY="2.8" markerWidth="18" markerHeight="15" orient="auto-start-reverse"><path stroke="black" fill="black" d="M1.01614 2.82609L5 0.574341L8.98386 2.82609L5 5.07783L1.01614 2.82609Z"/></marker><marker id="implementation" viewBox="0 0 8 10" refX="8" refY="5" markerWidth="20" markerHeight="20" orient="auto-start-reverse"><path stroke="black" fill="#fff" stroke-width="0.7" d="M0.750001 1.10289L7.5 5L0.750001 8.89712L0.750001 1.10289Z"/></marker><marker id="dependency" viewBox="0 0 12 12" refX="11" refY="6" markerWidth="12" markerHeight="11" orient="auto-start-reverse"><path stroke="black" fill="#fff" d="M1 5.93162H10.886M10.886 5.93162L1 0.5M10.886 5.93162L1 11"/></marker><marker id="inheritance" viewBox="0 0 8 10" refX="8" refY="5" markerWidth="20" markerHeight="20" orient="auto-start-reverse"><path stroke="black" fill="#fff" stroke-width="0.7" d="M0.750001 1.10289L7.5 5L0.750001 8.89712L0.750001 1.10289Z"/></marker><marker id="association" viewBox="0 0 12 12" refX="11" refY="6" markerWidth="12" markerHeight="11" orient="auto-start-reverse"><path stroke="black" d="M1 5.93162H10.886M10.886 5.93162L1 0.5M10.886 5.93162L1 11"/></marker><filter id="shadowOLD" x="-50%" y="-50%" width="250%" height="250%"><feDropShadow flood-color="black" flood-opacity="0.3" dx="1" dy="1" stdDeviation="2"> </feDropShadow></filter><filter id="shadow-path" filterUnits="userSpaceOnUse" x="-10" y="-10" width="1197.3515625px" height="667px"><feDropShadow flood-color="black" flood-opacity="0.1" dx="1" dy="1" stdDeviation="1"> </feDropShadow></filter><filter id="shadow" filterUnits="userSpaceOnUse" x="-10" y="-10" width="1297.3515625px" height="767px"><feDropShadow flood-color="black" flood-opacity="0.1" dx="1" dy="1" stdDeviation="1"> </feDropShadow></filter></defs><rect x="-10" y="-10" width="1197.3515625" height="667" fill="#fff"/><g><path transform="rotate(0,0, 0) scale(1)" d="M316,89L366,89L366,89L415,89L415,89L444,89" stroke="black" stroke-dasharray="6" stroke-width="1.3" fill="none" marker-end="url(#dependency)"/><text x="326" y="79" font-size="smaller" fill="black"/><text x="424" y="79" font-size="smaller" fill="black"/></g><g><path transform="rotate(0,0, 0) scale(1)" d="M696,94L774,94L774,94L812,94L812,94L841,94" stroke="black" stroke-dasharray="6" stroke-width="1.3" fill="none" marker-end="url(#dependency)"/><text x="706" y="84" font-size="smaller" fill="black"/><text x="821" y="84" font-size="smaller" fill="black"/></g><g><path transform="rotate(0,0, 0) scale(1)" d="M20,167L20,196L366,196L366,299L387,299L387,299L416,299" stroke="black" stroke-dasharray="6" stroke-width="1.3" fill="none" marker-end="url(#dependency)"/><text font-size="smaller" fill="black" x="30" y="177"/><text x="396" y="289" font-size="smaller" fill="black"/></g><g><path transform="rotate(0,0, 0) scale(1)" d="M724,344L774,344L774,344L795,344L795,344L824,344" stroke="black" stroke-dasharray="6" stroke-width="1.3" fill="none" marker-end="url(#dependency)"/><text x="734" y="334" font-size="smaller" fill="black"/><text x="804" y="334" font-size="smaller" fill="black"/></g><g><path transform="rotate(0,0, 0) scale(1)" d="M60,167L60,201L371,201L371,530L435,530L435,530L464,530" stroke="black" stroke-dasharray="none" stroke-width="1.3" fill="none" marker-end="url(#association)"/><text font-size="smaller" fill="black" x="70" y="177"/><text x="444" y="520" font-size="smaller" fill="black"/></g><g transform="translate(444.46875, 0)"><g transform="translate(0, 0)"><rect width="251.96875" height="179" stroke="black" fill="white" stroke-width="1" transform="translate(0, 0)" rx="0"/><g transform="translate(0, 0)"><g transform="translate(0, 0)"><rect width="251.96875" height="38" stroke="black" fill="white" stroke-width="1" transform="translate(0, 0)" rx="0"/><text fill="black" font-size="16" font-weight="bold" transform="translate(83.30078125, 10)" alignment-baseline="middle" font-family="Arial"><tspan x="0" dy="16" font-family="Arial" font-size="16" font-weight="bold">PostService</tspan></text></g><g transform="translate(0, 38)"><rect width="2" height="3" stroke="none" fill="none" stroke-width="1.3" transform="translate(0, 0)" rx="2"/></g><g transform="translate(0, 41)"><g transform="translate(0, 0)"><rect width="251.96875" height="24" stroke="none" fill="none" stroke-width="1.3" transform="translate(0, 0)" rx="0"/><g transform="translate(0, 0)"><rect width="15" height="15" stroke="none" fill="none" stroke-width="1.3" transform="translate(0, 4.5)" rx="2"/><g transform="translate(15, 10)"><path transform="rotate(0,0, 0) scale(1)" d="M4 5H11" stroke="black" stroke-dasharray="none" stroke-width="1.3" fill="none"/></g><rect width="2" height="20" stroke="none" fill="none" stroke-width="1.3" transform="translate(25, 2)" rx="2"/><g transform="translate(27, 0)"><g transform="translate(0, 0)"><rect width="123.390625" height="24" stroke="none" fill="none" stroke-width="0" transform="translate(0, 0)" rx="0"/><text fill="black" font-size="16" font-weight="normal" transform="translate(3, 3)" alignment-baseline="middle" font-family="Arial"><tspan x="0" dy="16" font-family="Arial" font-size="16" font-weight="normal">posts_repository</tspan></text></g></g></g></g><g transform="translate(0, 24)"><rect width="251.96875" height="24" stroke="none" fill="none" stroke-width="1.3" transform="translate(0, 0)" rx="0"/><g transform="translate(0, 0)"><rect width="15" height="15" stroke="none" fill="none" stroke-width="1.3" transform="translate(0, 4.5)" rx="2"/><g transform="translate(15, 10)"><path transform="rotate(0,0, 0) scale(1)" d="M4 5H11" stroke="black" stroke-dasharray="none" stroke-width="1.3" fill="none"/></g><rect width="2" height="20" stroke="none" fill="none" stroke-width="1.3" transform="translate(25, 2)" rx="2"/><g transform="translate(27, 0)"><g transform="translate(0, 0)"><rect width="44.2421875" height="24" stroke="none" fill="none" stroke-width="0" transform="translate(0, 0)" rx="0"/><text fill="black" font-size="16" font-weight="normal" transform="translate(3, 3)" alignment-baseline="middle" font-family="Arial"><tspan x="0" dy="16" font-family="Arial" font-size="16" font-weight="normal">posts</tspan></text></g></g></g></g></g><g transform="translate(0, 89)"><path d="M 0,7 L 251.96875 7" fill="none" stroke="black" stroke-dasharray="none" stroke-width="1"/><rect width="10" height="10" stroke="none" fill="none" stroke-width="1.3" transform="translate(0, 0)" rx="2"/></g><g transform="translate(0, 99)"><g transform="translate(0, 0)"><rect width="100" height="24" stroke="none" fill="none" stroke-width="1.3" transform="translate(0, 0)" rx="0"/><g transform="translate(0, 0)"><rect width="15" height="15" stroke="none" fill="none" stroke-width="1.3" transform="translate(0, 4.5)" rx="2"/><g transform="translate(15, 8)"><path transform="rotate(0,0, 0) scale(1)" d="M4 5H11M7.5 1V9" stroke="black" stroke-dasharray="none" stroke-width="1.3" fill="none"/></g><rect width="5" height="20" stroke="none" fill="none" stroke-width="1.3" transform="translate(22, 2)" rx="2"/><g transform="translate(27, 0)"><g transform="translate(0, 0)"><rect width="69.1484375" height="24" stroke="none" fill="none" stroke-width="0" transform="translate(0, 0)" rx="0"/><text fill="black" font-size="16" font-weight="normal" transform="translate(3, 3)" alignment-baseline="middle" font-family="Arial"><tspan x="0" dy="16" font-family="Arial" font-size="16" font-weight="normal">all_posts</tspan></text></g></g></g></g><g transform="translate(0, 24)"><rect width="100" height="24" stroke="none" fill="none" stroke-width="1.3" transform="translate(0, 0)" rx="0"/><g transform="translate(0, 0)"><rect width="15" height="15" stroke="none" fill="none" stroke-width="1.3" transform="translate(0, 4.5)" rx="2"/><g transform="translate(15, 8)"><path transform="rotate(0,0, 0) scale(1)" d="M4 5H11M7.5 1V9" stroke="black" stroke-dasharray="none" stroke-width="1.3" fill="none"/></g><rect width="5" height="20" stroke="none" fill="none" stroke-width="1.3" transform="translate(22, 2)" rx="2"/><g transform="translate(27, 0)"><g transform="translate(0, 0)"><rect width="174.96875" height="24" stroke="none" fill="none" stroke-width="0" transform="translate(0, 0)" rx="0"/><text fill="black" font-size="16" font-weight="normal" transform="translate(3, 3)" alignment-baseline="middle" font-family="Arial"><tspan x="0" dy="16" font-family="Arial" font-size="16" font-weight="normal">posts_for_user(user_id)</tspan></text></g></g></g></g><g transform="translate(0, 48)"><rect width="100" height="24" stroke="none" fill="none" stroke-width="1.3" transform="translate(0, 0)" rx="0"/><g transform="translate(0, 0)"><rect width="15" height="15" stroke="none" fill="none" stroke-width="1.3" transform="translate(0, 4.5)" rx="2"/><g transform="translate(15, 8)"><path transform="rotate(0,0, 0) scale(1)" d="M4 5H11M7.5 1V9" stroke="black" stroke-dasharray="none" stroke-width="1.3" fill="none"/></g><rect width="5" height="20" stroke="none" fill="none" stroke-width="1.3" transform="translate(22, 2)" rx="2"/><g transform="translate(27, 0)"><g transform="translate(0, 0)"><rect width="71.8359375" height="24" stroke="none" fill="none" stroke-width="0" transform="translate(0, 0)" rx="0"/><text fill="black" font-size="16" font-weight="normal" transform="translate(3, 3)" alignment-baseline="middle" font-family="Arial"><tspan x="0" dy="16" font-family="Arial" font-size="16" font-weight="normal">add_post</tspan></text></g></g></g></g></g><g transform="translate(0, 171)"><rect width="8" height="8" stroke="none" fill="none" stroke-width="1.3" transform="translate(0, 0)" rx="2"/></g></g></g></g><g transform="translate(0, 12)"><g transform="translate(0, 0)"><rect width="316.8984375" height="155" stroke="black" fill="white" stroke-width="1" transform="translate(0, 0)" rx="0"/><g transform="translate(0, 0)"><g transform="translate(0, 0)"><rect width="316.8984375" height="38" stroke="black" fill="white" stroke-width="1" transform="translate(0, 0)" rx="0"/><text fill="black" font-size="16" font-weight="bold" transform="translate(56.62109375, 10)" alignment-baseline="middle" font-family="Arial"><tspan x="0" dy="16" font-family="Arial" font-size="16" font-weight="bold">MessageBoardOrchestration</tspan></text></g><g transform="translate(0, 38)"><rect width="2" height="3" stroke="none" fill="none" stroke-width="1.3" transform="translate(0, 0)" rx="2"/></g><g transform="translate(0, 41)"><g transform="translate(0, 0)"><rect width="316.8984375" height="24" stroke="none" fill="none" stroke-width="1.3" transform="translate(0, 0)" rx="0"/><g transform="translate(0, 0)"><rect width="15" height="15" stroke="none" fill="none" stroke-width="1.3" transform="translate(0, 4.5)" rx="2"/><g transform="translate(15, 10)"><path transform="rotate(0,0, 0) scale(1)" d="M4 5H11" stroke="black" stroke-dasharray="none" stroke-width="1.3" fill="none"/></g><rect width="2" height="20" stroke="none" fill="none" stroke-width="1.3" transform="translate(25, 2)" rx="2"/><g transform="translate(27, 0)"><g transform="translate(0, 0)"><rect width="95.8203125" height="24" stroke="none" fill="none" stroke-width="0" transform="translate(0, 0)" rx="0"/><text fill="black" font-size="16" font-weight="normal" transform="translate(3, 3)" alignment-baseline="middle" font-family="Arial"><tspan x="0" dy="16" font-family="Arial" font-size="16" font-weight="normal">post_service</tspan></text></g></g></g></g><g transform="translate(0, 24)"><rect width="316.8984375" height="24" stroke="none" fill="none" stroke-width="1.3" transform="translate(0, 0)" rx="0"/><g transform="translate(0, 0)"><rect width="15" height="15" stroke="none" fill="none" stroke-width="1.3" transform="translate(0, 4.5)" rx="2"/><g transform="translate(15, 10)"><path transform="rotate(0,0, 0) scale(1)" d="M4 5H11" stroke="black" stroke-dasharray="none" stroke-width="1.3" fill="none"/></g><rect width="2" height="20" stroke="none" fill="none" stroke-width="1.3" transform="translate(25, 2)" rx="2"/><g transform="translate(27, 0)"><g transform="translate(0, 0)"><rect width="131.375" height="24" stroke="none" fill="none" stroke-width="0" transform="translate(0, 0)" rx="0"/><text fill="black" font-size="16" font-weight="normal" transform="translate(3, 3)" alignment-baseline="middle" font-family="Arial"><tspan x="0" dy="16" font-family="Arial" font-size="16" font-weight="normal">comment_service</tspan></text></g></g></g></g></g><g transform="translate(0, 89)"><path d="M 0,7 L 316.8984375 7" fill="none" stroke="black" stroke-dasharray="none" stroke-width="1"/><rect width="10" height="10" stroke="none" fill="none" stroke-width="1.3" transform="translate(0, 0)" rx="2"/></g><g transform="translate(0, 99)"><g transform="translate(0, 0)"><rect width="100" height="24" stroke="none" fill="none" stroke-width="1.3" transform="translate(0, 0)" rx="0"/><g transform="translate(0, 0)"><rect width="15" height="15" stroke="none" fill="none" stroke-width="1.3" transform="translate(0, 4.5)" rx="2"/><g transform="translate(15, 8)"><path transform="rotate(0,0, 0) scale(1)" d="M4 5H11M7.5 1V9" stroke="black" stroke-dasharray="none" stroke-width="1.3" fill="none"/></g><rect width="5" height="20" stroke="none" fill="none" stroke-width="1.3" transform="translate(22, 2)" rx="2"/><g transform="translate(27, 0)"><g transform="translate(0, 0)"><rect width="189.1953125" height="24" stroke="none" fill="none" stroke-width="0" transform="translate(0, 0)" rx="0"/><text fill="black" font-size="16" font-weight="normal" transform="translate(3, 3)" alignment-baseline="middle" font-family="Arial"><tspan x="0" dy="16" font-family="Arial" font-size="16" font-weight="normal">all_posts_with_comments</tspan></text></g></g></g></g><g transform="translate(0, 24)"><rect width="100" height="24" stroke="none" fill="none" stroke-width="1.3" transform="translate(0, 0)" rx="0"/><g transform="translate(0, 0)"><rect width="15" height="15" stroke="none" fill="none" stroke-width="1.3" transform="translate(0, 4.5)" rx="2"/><g transform="translate(15, 8)"><path transform="rotate(0,0, 0) scale(1)" d="M4 5H11M7.5 1V9" stroke="black" stroke-dasharray="none" stroke-width="1.3" fill="none"/></g><rect width="5" height="20" stroke="none" fill="none" stroke-width="1.3" transform="translate(22, 2)" rx="2"/><g transform="translate(27, 0)"><g transform="translate(0, 0)"><rect width="239.8984375" height="24" stroke="none" fill="none" stroke-width="0" transform="translate(0, 0)" rx="0"/><text fill="black" font-size="16" font-weight="normal" transform="translate(3, 3)" alignment-baseline="middle" font-family="Arial"><tspan x="0" dy="16" font-family="Arial" font-size="16" font-weight="normal">get_comments_for_post(post_id)</tspan></text></g></g></g></g></g><g transform="translate(0, 147)"><rect width="8" height="8" stroke="none" fill="none" stroke-width="1.3" transform="translate(0, 0)" rx="2"/></g></g></g></g><g transform="translate(841.78515625, 36)"><g transform="translate(0, 0)"><rect width="317.7890625" height="107" stroke="black" fill="white" stroke-width="1" transform="translate(0, 0)" rx="0"/><g transform="translate(0, 0)"><g transform="translate(0, 0)"><rect width="317.7890625" height="38" stroke="black" fill="white" stroke-width="1" transform="translate(0, 0)" rx="0"/><text fill="black" font-size="16" font-weight="bold" transform="translate(104.6484375, 10)" alignment-baseline="middle" font-family="Arial"><tspan x="0" dy="16" font-family="Arial" font-size="16" font-weight="bold">PostRepository</tspan></text></g><g transform="translate(0, 38)"><rect width="2" height="3" stroke="none" fill="none" stroke-width="1.3" transform="translate(0, 0)" rx="2"/></g><g transform="translate(0, 41)"><g transform="translate(0, 0)"><rect width="317.7890625" height="24" stroke="none" fill="none" stroke-width="1.3" transform="translate(0, 0)" rx="0"/><g transform="translate(0, 0)"><rect width="15" height="15" stroke="none" fill="none" stroke-width="1.3" transform="translate(0, 4.5)" rx="2"/><g transform="translate(15, 10)"><path transform="rotate(0,0, 0) scale(1)" d="M4 5H11" stroke="black" stroke-dasharray="none" stroke-width="1.3" fill="none"/></g><rect width="2" height="20" stroke="none" fill="none" stroke-width="1.3" transform="translate(25, 2)" rx="2"/><g transform="translate(27, 0)"><g transform="translate(0, 0)"><rect width="78.0390625" height="24" stroke="none" fill="none" stroke-width="0" transform="translate(0, 0)" rx="0"/><text fill="black" font-size="16" font-weight="normal" transform="translate(3, 3)" alignment-baseline="middle" font-family="Arial"><tspan x="0" dy="16" font-family="Arial" font-size="16" font-weight="normal">db access</tspan></text></g></g></g></g></g><g transform="translate(0, 65)"><path d="M 0,7 L 317.7890625 7" fill="none" stroke="black" stroke-dasharray="none" stroke-width="1"/><rect width="10" height="10" stroke="none" fill="none" stroke-width="1.3" transform="translate(0, 0)" rx="2"/></g><g transform="translate(0, 75)"><g transform="translate(0, 0)"><rect width="100" height="24" stroke="none" fill="none" stroke-width="1.3" transform="translate(0, 0)" rx="0"/><g transform="translate(0, 0)"><rect width="15" height="15" stroke="none" fill="none" stroke-width="1.3" transform="translate(0, 4.5)" rx="2"/><g transform="translate(15, 8)"><path transform="rotate(0,0, 0) scale(1)" d="M4 5H11M7.5 1V9" stroke="black" stroke-dasharray="none" stroke-width="1.3" fill="none"/></g><rect width="5" height="20" stroke="none" fill="none" stroke-width="1.3" transform="translate(22, 2)" rx="2"/><g transform="translate(27, 0)"><g transform="translate(0, 0)"><rect width="240.7890625" height="24" stroke="none" fill="none" stroke-width="0" transform="translate(0, 0)" rx="0"/><text fill="black" font-size="16" font-weight="normal" transform="translate(3, 3)" alignment-baseline="middle" font-family="Arial"><tspan x="0" dy="16" font-family="Arial" font-size="16" font-weight="normal">various methods for finding posts</tspan></text></g></g></g></g></g><g transform="translate(0, 99)"><rect width="8" height="8" stroke="none" fill="none" stroke-width="1.3" transform="translate(0, 0)" rx="2"/></g></g></g></g><g transform="translate(416.8984375, 279)"><g transform="translate(0, 0)"><rect width="307.109375" height="131" stroke="black" fill="white" stroke-width="1" transform="translate(0, 0)" rx="0"/><g transform="translate(0, 0)"><g transform="translate(0, 0)"><rect width="307.109375" height="38" stroke="black" fill="white" stroke-width="1" transform="translate(0, 0)" rx="0"/><text fill="black" font-size="16" font-weight="bold" transform="translate(92.203125, 10)" alignment-baseline="middle" font-family="Arial"><tspan x="0" dy="16" font-family="Arial" font-size="16" font-weight="bold">CommentService</tspan></text></g><g transform="translate(0, 38)"><rect width="2" height="3" stroke="none" fill="none" stroke-width="1.3" transform="translate(0, 0)" rx="2"/></g><g transform="translate(0, 41)"><g transform="translate(0, 0)"><rect width="307.109375" height="24" stroke="none" fill="none" stroke-width="1.3" transform="translate(0, 0)" rx="0"/><g transform="translate(0, 0)"><rect width="15" height="15" stroke="none" fill="none" stroke-width="1.3" transform="translate(0, 4.5)" rx="2"/><g transform="translate(15, 10)"><path transform="rotate(0,0, 0) scale(1)" d="M4 5H11" stroke="black" stroke-dasharray="none" stroke-width="1.3" fill="none"/></g><rect width="2" height="20" stroke="none" fill="none" stroke-width="1.3" transform="translate(25, 2)" rx="2"/><g transform="translate(27, 0)"><g transform="translate(0, 0)"><rect width="158.9453125" height="24" stroke="none" fill="none" stroke-width="0" transform="translate(0, 0)" rx="0"/><text fill="black" font-size="16" font-weight="normal" transform="translate(3, 3)" alignment-baseline="middle" font-family="Arial"><tspan x="0" dy="16" font-family="Arial" font-size="16" font-weight="normal">comments_repository</tspan></text></g></g></g></g></g><g transform="translate(0, 65)"><path d="M 0,7 L 307.109375 7" fill="none" stroke="black" stroke-dasharray="none" stroke-width="1"/><rect width="10" height="10" stroke="none" fill="none" stroke-width="1.3" transform="translate(0, 0)" rx="2"/></g><g transform="translate(0, 75)"><g transform="translate(0, 0)"><rect width="100" height="24" stroke="none" fill="none" stroke-width="1.3" transform="translate(0, 0)" rx="0"/><g transform="translate(0, 0)"><rect width="15" height="15" stroke="none" fill="none" stroke-width="1.3" transform="translate(0, 4.5)" rx="2"/><g transform="translate(15, 8)"><path transform="rotate(0,0, 0) scale(1)" d="M4 5H11M7.5 1V9" stroke="black" stroke-dasharray="none" stroke-width="1.3" fill="none"/></g><rect width="5" height="20" stroke="none" fill="none" stroke-width="1.3" transform="translate(22, 2)" rx="2"/><g transform="translate(27, 0)"><g transform="translate(0, 0)"><rect width="230.109375" height="24" stroke="none" fill="none" stroke-width="0" transform="translate(0, 0)" rx="0"/><text fill="black" font-size="16" font-weight="normal" transform="translate(3, 3)" alignment-baseline="middle" font-family="Arial"><tspan x="0" dy="16" font-family="Arial" font-size="16" font-weight="normal">comments_for_post_id(post_id)</tspan></text></g></g></g></g><g transform="translate(0, 24)"><rect width="100" height="24" stroke="none" fill="none" stroke-width="1.3" transform="translate(0, 0)" rx="0"/><g transform="translate(0, 0)"><rect width="15" height="15" stroke="none" fill="none" stroke-width="1.3" transform="translate(0, 4.5)" rx="2"/><g transform="translate(15, 8)"><path transform="rotate(0,0, 0) scale(1)" d="M4 5H11M7.5 1V9" stroke="black" stroke-dasharray="none" stroke-width="1.3" fill="none"/></g><rect width="5" height="20" stroke="none" fill="none" stroke-width="1.3" transform="translate(22, 2)" rx="2"/><g transform="translate(27, 0)"><g transform="translate(0, 0)"><rect width="107.390625" height="24" stroke="none" fill="none" stroke-width="0" transform="translate(0, 0)" rx="0"/><text fill="black" font-size="16" font-weight="normal" transform="translate(3, 3)" alignment-baseline="middle" font-family="Arial"><tspan x="0" dy="16" font-family="Arial" font-size="16" font-weight="normal">add_comment</tspan></text></g></g></g></g></g><g transform="translate(0, 123)"><rect width="8" height="8" stroke="none" fill="none" stroke-width="1.3" transform="translate(0, 0)" rx="2"/></g></g></g></g><g transform="translate(824.0078125, 291)"><g transform="translate(0, 0)"><rect width="353.34375" height="107" stroke="black" fill="white" stroke-width="1" transform="translate(0, 0)" rx="0"/><g transform="translate(0, 0)"><g transform="translate(0, 0)"><rect width="353.34375" height="38" stroke="black" fill="white" stroke-width="1" transform="translate(0, 0)" rx="0"/><text fill="black" font-size="16" font-weight="bold" transform="translate(103.7578125, 10)" alignment-baseline="middle" font-family="Arial"><tspan x="0" dy="16" font-family="Arial" font-size="16" font-weight="bold">CommentRepository</tspan></text></g><g transform="translate(0, 38)"><rect width="2" height="3" stroke="none" fill="none" stroke-width="1.3" transform="translate(0, 0)" rx="2"/></g><g transform="translate(0, 41)"><g transform="translate(0, 0)"><rect width="353.34375" height="24" stroke="none" fill="none" stroke-width="1.3" transform="translate(0, 0)" rx="0"/><g transform="translate(0, 0)"><rect width="15" height="15" stroke="none" fill="none" stroke-width="1.3" transform="translate(0, 4.5)" rx="2"/><g transform="translate(15, 10)"><path transform="rotate(0,0, 0) scale(1)" d="M4 5H11" stroke="black" stroke-dasharray="none" stroke-width="1.3" fill="none"/></g><rect width="2" height="20" stroke="none" fill="none" stroke-width="1.3" transform="translate(25, 2)" rx="2"/><g transform="translate(27, 0)"><g transform="translate(0, 0)"><rect width="78.0390625" height="24" stroke="none" fill="none" stroke-width="0" transform="translate(0, 0)" rx="0"/><text fill="black" font-size="16" font-weight="normal" transform="translate(3, 3)" alignment-baseline="middle" font-family="Arial"><tspan x="0" dy="16" font-family="Arial" font-size="16" font-weight="normal">db access</tspan></text></g></g></g></g></g><g transform="translate(0, 65)"><path d="M 0,7 L 353.34375 7" fill="none" stroke="black" stroke-dasharray="none" stroke-width="1"/><rect width="10" height="10" stroke="none" fill="none" stroke-width="1.3" transform="translate(0, 0)" rx="2"/></g><g transform="translate(0, 75)"><g transform="translate(0, 0)"><rect width="100" height="24" stroke="none" fill="none" stroke-width="1.3" transform="translate(0, 0)" rx="0"/><g transform="translate(0, 0)"><rect width="15" height="15" stroke="none" fill="none" stroke-width="1.3" transform="translate(0, 4.5)" rx="2"/><g transform="translate(15, 8)"><path transform="rotate(0,0, 0) scale(1)" d="M4 5H11M7.5 1V9" stroke="black" stroke-dasharray="none" stroke-width="1.3" fill="none"/></g><rect width="5" height="20" stroke="none" fill="none" stroke-width="1.3" transform="translate(22, 2)" rx="2"/><g transform="translate(27, 0)"><g transform="translate(0, 0)"><rect width="276.34375" height="24" stroke="none" fill="none" stroke-width="0" transform="translate(0, 0)" rx="0"/><text fill="black" font-size="16" font-weight="normal" transform="translate(3, 3)" alignment-baseline="middle" font-family="Arial"><tspan x="0" dy="16" font-family="Arial" font-size="16" font-weight="normal">various methods for finding comments</tspan></text></g></g></g></g></g><g transform="translate(0, 99)"><rect width="8" height="8" stroke="none" fill="none" stroke-width="1.3" transform="translate(0, 0)" rx="2"/></g></g></g></g><g transform="translate(464.01171875, 510)"><g transform="translate(0, 0)"><rect width="212.8828125" height="137" stroke="black" fill="white" stroke-width="1" transform="translate(0, 0)" rx="0"/><g transform="translate(0, 0)"><g transform="translate(0, 0)"><rect width="212.8828125" height="38" stroke="black" fill="white" stroke-width="1" transform="translate(0, 0)" rx="0"/><text fill="black" font-size="16" font-weight="bold" transform="translate(35, 10)" alignment-baseline="middle" font-family="Arial"><tspan x="0" dy="16" font-family="Arial" font-size="16" font-weight="bold">CompositePostView</tspan></text></g><g transform="translate(0, 38)"><rect width="2" height="3" stroke="none" fill="none" stroke-width="1.3" transform="translate(0, 0)" rx="2"/></g><g transform="translate(0, 41)"><g transform="translate(0, 0)"><rect width="212.8828125" height="24" stroke="none" fill="none" stroke-width="1.3" transform="translate(0, 0)" rx="0"/><g transform="translate(0, 0)"><rect width="15" height="15" stroke="none" fill="none" stroke-width="1.3" transform="translate(0, 4.5)" rx="2"/><g transform="translate(15, 10)"><path transform="rotate(0,0, 0) scale(1)" d="M4 5H11" stroke="black" stroke-dasharray="none" stroke-width="1.3" fill="none"/></g><rect width="2" height="20" stroke="none" fill="none" stroke-width="1.3" transform="translate(25, 2)" rx="2"/><g transform="translate(27, 0)"><g transform="translate(0, 0)"><rect width="36.2421875" height="24" stroke="none" fill="none" stroke-width="0" transform="translate(0, 0)" rx="0"/><text fill="black" font-size="16" font-weight="normal" transform="translate(3, 3)" alignment-baseline="middle" font-family="Arial"><tspan x="0" dy="16" font-family="Arial" font-size="16" font-weight="normal">post</tspan></text></g></g></g></g><g transform="translate(0, 24)"><rect width="212.8828125" height="24" stroke="none" fill="none" stroke-width="1.3" transform="translate(0, 0)" rx="0"/><g transform="translate(0, 0)"><rect width="15" height="15" stroke="none" fill="none" stroke-width="1.3" transform="translate(0, 4.5)" rx="2"/><g transform="translate(15, 10)"><path transform="rotate(0,0, 0) scale(1)" d="M4 5H11" stroke="black" stroke-dasharray="none" stroke-width="1.3" fill="none"/></g><rect width="2" height="20" stroke="none" fill="none" stroke-width="1.3" transform="translate(25, 2)" rx="2"/><g transform="translate(27, 0)"><g transform="translate(0, 0)"><rect width="79.796875" height="24" stroke="none" fill="none" stroke-width="0" transform="translate(0, 0)" rx="0"/><text fill="black" font-size="16" font-weight="normal" transform="translate(3, 3)" alignment-baseline="middle" font-family="Arial"><tspan x="0" dy="16" font-family="Arial" font-size="16" font-weight="normal">comments</tspan></text></g></g></g></g></g><g transform="translate(0, 89)"><path d="M 0,7 L 212.8828125 7" fill="none" stroke="black" stroke-dasharray="none" stroke-width="1"/><rect width="10" height="10" stroke="none" fill="none" stroke-width="1.3" transform="translate(0, 0)" rx="2"/></g><g transform="translate(0, 99)"><rect width="30" height="30" stroke="none" fill="none" stroke-width="1.3" transform="translate(0, 0)" rx="2"/></g><g transform="translate(0, 129)"><rect width="8" height="8" stroke="none" fill="none" stroke-width="1.3" transform="translate(0, 0)" rx="2"/></g></g></g></g></svg>